<svg width="498" height="444" viewBox="0 0 498 444" fill="none" xmlns="http://www.w3.org/2000/svg">
<path d="M9 62.25C9 48.1272 14.619 34.5829 24.621 24.5966C34.6229 14.6102 48.1885 9 62.3333 9H167.133C175.912 8.99869 184.554 11.1608 192.295 15.2944C200.036 19.4281 206.635 25.4055 211.507 32.6962L233.16 65.1788C238.032 72.4695 244.631 78.4469 252.372 82.5806C260.112 86.7142 268.755 88.8763 277.533 88.875H435.667C449.812 88.875 463.377 94.4852 473.379 104.472C483.381 114.458 489 128.002 489 142.125V381.75C489 395.873 483.381 409.417 473.379 419.403C463.377 429.39 449.812 435 435.667 435H62.3333C48.1885 435 34.6229 429.39 24.621 419.403C14.619 409.417 9 395.873 9 381.75V62.25Z" fill="white" stroke="url(#paint0_linear_121_3)" stroke-width="18" stroke-linecap="round" stroke-linejoin="round"/>
<defs>
<linearGradient id="paint0_linear_121_3" x1="538.5" y1="98" x2="-55" y2="368" gradientUnits="userSpaceOnUse">
<stop stop-color="#F3F3F3"/>
<stop offset="1" stop-color="#D9D9D9"/>
</linearGradient>
</defs>
</svg>
